<svg xmlns="http://www.w3.org/2000/svg" width="560" height="684" viewBox="0 0 560 684" font-family="'Helvetica Neue', Arial, sans-serif"><rect id="cell-r0-c0" x="8" y="8" width="32" height="32" fill="#ffffff" stroke="#333333" stroke-width="1"/><text x="10" y="18" font-size="9" fill="#0066cc">1</text><text x="24" y="30" font-size="18" fill="#111111" text-anchor="middle">O</text><rect id="cell-r0-c1" x="40" y="8" width="32" height="32" fill="#ffffff" stroke="#333333" stroke-width="1"/><text x="56" y="30" font-size="18" fill="#111111" text-anchor="middle">M</text><rect id="cell-r0-c2" x="72" y="8" width="32" height="32" fill="#ffffff" stroke="#333333" stroke-width="1"/><text x="88" y="30" font-size="18" fill="#111111" text-anchor="middle">E</text><rect id="cell-r0-c3" x="104" y="8" width="32" height="32" fill="#ffffff" stroke="#333333" stroke-width="1"/><text x="106" y="18" font-size="9" fill="#0066cc">2</text><text x="120" y="30" font-size="18" fill="#111111" text-anchor="middle">G</text><rect id="cell-r0-c4" x="136" y="8" width="32" height="32" fill="#ffffff" stroke="#333333" stroke-width="1"/><text x="152" y="30" font-size="18" fill="#111111" text-anchor="middle">A</text><rect id="cell-r0-c5" x="168" y="8" width="32" height="32" fill="#ffffff" stroke="#333333" stroke-width="1"/><text x="184" y="30" font-size="18" fill="#111111" text-anchor="middle">P</text><rect id="cell-r0-c6" x="200" y="8" width="32" height="32" fill="#ffffff" stroke="#333333" stroke-width="1"/><text x="216" y="30" font-size="18" fill="#111111" text-anchor="middle">O</text><rect id="cell-r0-c7" x="232" y="8" width="32" height="32" fill="#ffffff" stroke="#333333" stroke-width="1"/><text x="248" y="30" font-size="18" fill="#111111" text-anchor="middle">I</text><rect id="cell-r0-c8" x="264" y="8" width="32" height="32" fill="#ffffff" stroke="#333333" stroke-width="1"/><text x="280" y="30" font-size="18" fill="#111111" text-anchor="middle">N</text><rect id="cell-r0-c9" x="296" y="8" width="32" height="32" fill="#ffffff" stroke="#333333" stroke-width="1"/><text x="312" y="30" font-size="18" fill="#111111" text-anchor="middle">T</text><rect id="cell-r0-c10" x="328" y="8" width="32" height="32" fill="#111111" stroke="#333333" stroke-width="1"/><rect id="cell-r0-c11" x="360" y="8" width="32" height="32" fill="#111111" stroke="#333333" stroke-width="1"/><rect id="cell-r0-c12" x="392" y="8" width="32" height="32" fill="#111111" stroke="#333333" stroke-width="1"/><rect id="cell-r0-c13" x="424" y="8" width="32" height="32" fill="#111111" stroke="#333333" stroke-width="1"/><rect id="cell-r0-c14" x="456" y="8" width="32" height="32" fill="#111111" stroke="#333333" stroke-width="1"/><rect id="cell-r0-c15" x="488" y="8" width="32" height="32" fill="#111111" stroke="#333333" stroke-width="1"/><rect id="cell-r0-c16" x="520" y="8" width="32" height="32" fill="#111111" stroke="#333333" stroke-width="1"/><rect id="cell-r1-c0" x="8" y="40" width="32" height="32" fill="#111111" stroke="#333333" stroke-width="1"/><rect id="cell-r1-c1" x="40" y="40" width="32" height="32" fill="#111111" stroke="#333333" stroke-width="1"/><rect id="cell-r1-c2" x="72" y="40" width="32" height="32" fill="#111111" stroke="#333333" stroke-width="1"/><rect id="cell-r1-c3" x="104" y="40" width="32" height="32" fill="#ffffff" stroke="#333333" stroke-width="1"/><text x="120" y="62" font-size="18" fill="#111111" text-anchor="middle">N</text><rect id="cell-r1-c4" x="136" y="40" width="32" height="32" fill="#111111" stroke="#333333" stroke-width="1"/><rect id="cell-r1-c5" x="168" y="40" width="32" height="32" fill="#111111" stroke="#333333" stroke-width="1"/><rect id="cell-r1-c6" x="200" y="40" width="32" height="32" fill="#111111" stroke="#333333" stroke-width="1"/><rect id="cell-r1-c7" x="232" y="40" width="32" height="32" fill="#111111" stroke="#333333" stroke-width="1"/><rect id="cell-r1-c8" x="264" y="40" width="32" height="32" fill="#111111" stroke="#333333" stroke-width="1"/><rect id="cell-r1-c9" x="296" y="40" width="32" height="32" fill="#111111" stroke="#333333" stroke-width="1"/><rect id="cell-r1-c10" x="328" y="40" width="32" height="32" fill="#111111" stroke="#333333" stroke-width="1"/><rect id="cell-r1-c11" x="360" y="40" width="32" height="32" fill="#111111" stroke="#333333" stroke-width="1"/><rect id="cell-r1-c12" x="392" y="40" width="32" height="32" fill="#111111" stroke="#333333" stroke-width="1"/><rect id="cell-r1-c13" x="424" y="40" width="32" height="32" fill="#ffffff" stroke="#333333" stroke-width="1"/><text x="426" y="50" font-size="9" fill="#0066cc">3</text><text x="440" y="62" font-size="18" fill="#111111" text-anchor="middle">N</text><rect id="cell-r1-c14" x="456" y="40" width="32" height="32" fill="#111111" stroke="#333333" stroke-width="1"/><rect id="cell-r1-c15" x="488" y="40" width="32" height="32" fill="#111111" stroke="#333333" stroke-width="1"/><rect id="cell-r1-c16" x="520" y="40" width="32" height="32" fill="#111111" stroke="#333333" stroke-width="1"/><rect id="cell-r2-c0" x="8" y="72" width="32" height="32" fill="#111111" stroke="#333333" stroke-width="1"/><rect id="cell-r2-c1" x="40" y="72" width="32" height="32" fill="#111111" stroke="#333333" stroke-width="1"/><rect id="cell-r2-c2" x="72" y="72" width="32" height="32" fill="#111111" stroke="#333333" stroke-width="1"/><rect id="cell-r2-c3" x="104" y="72" width="32" height="32" fill="#ffffff" stroke="#333333" stroke-width="1"/><text x="120" y="94" font-size="18" fill="#111111" text-anchor="middle">O</text><rect id="cell-r2-c4" x="136" y="72" width="32" height="32" fill="#111111" stroke="#333333" stroke-width="1"/><rect id="cell-r2-c5" x="168" y="72" width="32" height="32" fill="#111111" stroke="#333333" stroke-width="1"/><rect id="cell-r2-c6" x="200" y="72" width="32" height="32" fill="#111111" stroke="#333333" stroke-width="1"/><rect id="cell-r2-c7" x="232" y="72" width="32" height="32" fill="#111111" stroke="#333333" stroke-width="1"/><rect id="cell-r2-c8" x="264" y="72" width="32" height="32" fill="#111111" stroke="#333333" stroke-width="1"/><rect id="cell-r2-c9" x="296" y="72" width="32" height="32" fill="#111111" stroke="#333333" stroke-width="1"/><rect id="cell-r2-c10" x="328" y="72" width="32" height="32" fill="#111111" stroke="#333333" stroke-width="1"/><rect id="cell-r2-c11" x="360" y="72" width="32" height="32" fill="#111111" stroke="#333333" stroke-width="1"/><rect id="cell-r2-c12" x="392" y="72" width="32" height="32" fill="#111111" stroke="#333333" stroke-width="1"/><rect id="cell-r2-c13" x="424" y="72" width="32" height="32" fill="#ffffff" stroke="#333333" stroke-width="1"/><text x="440" y="94" font-size="18" fill="#111111" text-anchor="middle">A</text><rect id="cell-r2-c14" x="456" y="72" width="32" height="32" fill="#111111" stroke="#333333" stroke-width="1"/><rect id="cell-r2-c15" x="488" y="72" width="32" height="32" fill="#111111" stroke="#333333" stroke-width="1"/><rect id="cell-r2-c16" x="520" y="72" width="32" height="32" fill="#111111" stroke="#333333" stroke-width="1"/><rect id="cell-r3-c0" x="8" y="104" width="32" height="32" fill="#111111" stroke="#333333" stroke-width="1"/><rect id="cell-r3-c1" x="40" y="104" width="32" height="32" fill="#111111" stroke="#333333" stroke-width="1"/><rect id="cell-r3-c2" x="72" y="104" width="32" height="32" fill="#111111" stroke="#333333" stroke-width="1"/><rect id="cell-r3-c3" x="104" y="104" width="32" height="32" fill="#ffffff" stroke="#333333" stroke-width="1"/><text x="120" y="126" font-size="18" fill="#111111" text-anchor="middle">S</text><rect id="cell-r3-c4" x="136" y="104" width="32" height="32" fill="#111111" stroke="#333333" stroke-width="1"/><rect id="cell-r3-c5" x="168" y="104" width="32" height="32" fill="#111111" stroke="#333333" stroke-width="1"/><rect id="cell-r3-c6" x="200" y="104" width="32" height="32" fill="#111111" stroke="#333333" stroke-width="1"/><rect id="cell-r3-c7" x="232" y="104" width="32" height="32" fill="#111111" stroke="#333333" stroke-width="1"/><rect id="cell-r3-c8" x="264" y="104" width="32" height="32" fill="#111111" stroke="#333333" stroke-width="1"/><rect id="cell-r3-c9" x="296" y="104" width="32" height="32" fill="#111111" stroke="#333333" stroke-width="1"/><rect id="cell-r3-c10" x="328" y="104" width="32" height="32" fill="#111111" stroke="#333333" stroke-width="1"/><rect id="cell-r3-c11" x="360" y="104" width="32" height="32" fill="#111111" stroke="#333333" stroke-width="1"/><rect id="cell-r3-c12" x="392" y="104" width="32" height="32" fill="#111111" stroke="#333333" stroke-width="1"/><rect id="cell-r3-c13" x="424" y="104" width="32" height="32" fill="#ffffff" stroke="#333333" stroke-width="1"/><text x="440" y="126" font-size="18" fill="#111111" text-anchor="middle">R</text><rect id="cell-r3-c14" x="456" y="104" width="32" height="32" fill="#111111" stroke="#333333" stroke-width="1"/><rect id="cell-r3-c15" x="488" y="104" width="32" height="32" fill="#111111" stroke="#333333" stroke-width="1"/><rect id="cell-r3-c16" x="520" y="104" width="32" height="32" fill="#111111" stroke="#333333" stroke-width="1"/><rect id="cell-r4-c0" x="8" y="136" width="32" height="32" fill="#111111" stroke="#333333" stroke-width="1"/><rect id="cell-r4-c1" x="40" y="136" width="32" height="32" fill="#111111" stroke="#333333" stroke-width="1"/><rect id="cell-r4-c2" x="72" y="136" width="32" height="32" fill="#ffffff" stroke="#333333" stroke-width="1"/><text x="74" y="146" font-size="9" fill="#0066cc">4</text><text x="88" y="158" font-size="18" fill="#111111" text-anchor="middle">E</text><rect id="cell-r4-c3" x="104" y="136" width="32" height="32" fill="#ffffff" stroke="#333333" stroke-width="1"/><text x="120" y="158" font-size="18" fill="#111111" text-anchor="middle">T</text><rect id="cell-r4-c4" x="136" y="136" width="32" height="32" fill="#ffffff" stroke="#333333" stroke-width="1"/><text x="152" y="158" font-size="18" fill="#111111" text-anchor="middle">E</text><rect id="cell-r4-c5" x="168" y="136" width="32" height="32" fill="#ffffff" stroke="#333333" stroke-width="1"/><text x="184" y="158" font-size="18" fill="#111111" text-anchor="middle">R</text><rect id="cell-r4-c6" x="200" y="136" width="32" height="32" fill="#ffffff" stroke="#333333" stroke-width="1"/><text x="216" y="158" font-size="18" fill="#111111" text-anchor="middle">N</text><rect id="cell-r4-c7" x="232" y="136" width="32" height="32" fill="#ffffff" stroke="#333333" stroke-width="1"/><text x="248" y="158" font-size="18" fill="#111111" text-anchor="middle">A</text><rect id="cell-r4-c8" x="264" y="136" width="32" height="32" fill="#ffffff" stroke="#333333" stroke-width="1"/><text x="280" y="158" font-size="18" fill="#111111" text-anchor="middle">L</text><rect id="cell-r4-c9" x="296" y="136" width="32" height="32" fill="#ffffff" stroke="#333333" stroke-width="1"/><text x="312" y="158" font-size="18" fill="#111111" text-anchor="middle">R</text><rect id="cell-r4-c10" x="328" y="136" width="32" height="32" fill="#ffffff" stroke="#333333" stroke-width="1"/><text x="344" y="158" font-size="18" fill="#111111" text-anchor="middle">E</text><rect id="cell-r4-c11" x="360" y="136" width="32" height="32" fill="#ffffff" stroke="#333333" stroke-width="1"/><text x="376" y="158" font-size="18" fill="#111111" text-anchor="middle">T</text><rect id="cell-r4-c12" x="392" y="136" width="32" height="32" fill="#ffffff" stroke="#333333" stroke-width="1"/><text x="408" y="158" font-size="18" fill="#111111" text-anchor="middle">U</text><rect id="cell-r4-c13" x="424" y="136" width="32" height="32" fill="#ffffff" stroke="#333333" stroke-width="1"/><text x="440" y="158" font-size="18" fill="#111111" text-anchor="middle">R</text><rect id="cell-r4-c14" x="456" y="136" width="32" height="32" fill="#ffffff" stroke="#333333" stroke-width="1"/><text x="472" y="158" font-size="18" fill="#111111" text-anchor="middle">N</text><rect id="cell-r4-c15" x="488" y="136" width="32" height="32" fill="#111111" stroke="#333333" stroke-width="1"/><rect id="cell-r4-c16" x="520" y="136" width="32" height="32" fill="#111111" stroke="#333333" stroke-width="1"/><rect id="cell-r5-c0" x="8" y="168" width="32" height="32" fill="#111111" stroke="#333333" stroke-width="1"/><rect id="cell-r5-c1" x="40" y="168" width="32" height="32" fill="#111111" stroke="#333333" stroke-width="1"/><rect id="cell-r5-c2" x="72" y="168" width="32" height="32" fill="#111111" stroke="#333333" stroke-width="1"/><rect id="cell-r5-c3" x="104" y="168" width="32" height="32" fill="#ffffff" stroke="#333333" stroke-width="1"/><text x="120" y="190" font-size="18" fill="#111111" text-anchor="middle">I</text><rect id="cell-r5-c4" x="136" y="168" width="32" height="32" fill="#111111" stroke="#333333" stroke-width="1"/><rect id="cell-r5-c5" x="168" y="168" width="32" height="32" fill="#111111" stroke="#333333" stroke-width="1"/><rect id="cell-r5-c6" x="200" y="168" width="32" height="32" fill="#111111" stroke="#333333" stroke-width="1"/><rect id="cell-r5-c7" x="232" y="168" width="32" height="32" fill="#111111" stroke="#333333" stroke-width="1"/><rect id="cell-r5-c8" x="264" y="168" width="32" height="32" fill="#111111" stroke="#333333" stroke-width="1"/><rect id="cell-r5-c9" x="296" y="168" width="32" height="32" fill="#111111" stroke="#333333" stroke-width="1"/><rect id="cell-r5-c10" x="328" y="168" width="32" height="32" fill="#111111" stroke="#333333" stroke-width="1"/><rect id="cell-r5-c11" x="360" y="168" width="32" height="32" fill="#111111" stroke="#333333" stroke-width="1"/><rect id="cell-r5-c12" x="392" y="168" width="32" height="32" fill="#111111" stroke="#333333" stroke-width="1"/><rect id="cell-r5-c13" x="424" y="168" width="32" height="32" fill="#ffffff" stroke="#333333" stroke-width="1"/><text x="440" y="190" font-size="18" fill="#111111" text-anchor="middle">A</text><rect id="cell-r5-c14" x="456" y="168" width="32" height="32" fill="#111111" stroke="#333333" stroke-width="1"/><rect id="cell-r5-c15" x="488" y="168" width="32" height="32" fill="#111111" stroke="#333333" stroke-width="1"/><rect id="cell-r5-c16" x="520" y="168" width="32" height="32" fill="#111111" stroke="#333333" stroke-width="1"/><rect id="cell-r6-c0" x="8" y="200" width="32" height="32" fill="#111111" stroke="#333333" stroke-width="1"/><rect id="cell-r6-c1" x="40" y="200" width="32" height="32" fill="#111111" stroke="#333333" stroke-width="1"/><rect id="cell-r6-c2" x="72" y="200" width="32" height="32" fill="#111111" stroke="#333333" stroke-width="1"/><rect id="cell-r6-c3" x="104" y="200" width="32" height="32" fill="#ffffff" stroke="#333333" stroke-width="1"/><text x="120" y="222" font-size="18" fill="#111111" text-anchor="middle">C</text><rect id="cell-r6-c4" x="136" y="200" width="32" height="32" fill="#111111" stroke="#333333" stroke-width="1"/><rect id="cell-r6-c5" x="168" y="200" width="32" height="32" fill="#111111" stroke="#333333" stroke-width="1"/><rect id="cell-r6-c6" x="200" y="200" width="32" height="32" fill="#111111" stroke="#333333" stroke-width="1"/><rect id="cell-r6-c7" x="232" y="200" width="32" height="32" fill="#111111" stroke="#333333" stroke-width="1"/><rect id="cell-r6-c8" x="264" y="200" width="32" height="32" fill="#111111" stroke="#333333" stroke-width="1"/><rect id="cell-r6-c9" x="296" y="200" width="32" height="32" fill="#111111" stroke="#333333" stroke-width="1"/><rect id="cell-r6-c10" x="328" y="200" width="32" height="32" fill="#111111" stroke="#333333" stroke-width="1"/><rect id="cell-r6-c11" x="360" y="200" width="32" height="32" fill="#111111" stroke="#333333" stroke-width="1"/><rect id="cell-r6-c12" x="392" y="200" width="32" height="32" fill="#111111" stroke="#333333" stroke-width="1"/><rect id="cell-r6-c13" x="424" y="200" width="32" height="32" fill="#ffffff" stroke="#333333" stroke-width="1"/><text x="440" y="222" font-size="18" fill="#111111" text-anchor="middle">T</text><rect id="cell-r6-c14" x="456" y="200" width="32" height="32" fill="#111111" stroke="#333333" stroke-width="1"/><rect id="cell-r6-c15" x="488" y="200" width="32" height="32" fill="#111111" stroke="#333333" stroke-width="1"/><rect id="cell-r6-c16" x="520" y="200" width="32" height="32" fill="#111111" stroke="#333333" stroke-width="1"/><rect id="cell-r7-c0" x="8" y="232" width="32" height="32" fill="#111111" stroke="#333333" stroke-width="1"/><rect id="cell-r7-c1" x="40" y="232" width="32" height="32" fill="#111111" stroke="#333333" stroke-width="1"/><rect id="cell-r7-c2" x="72" y="232" width="32" height="32" fill="#111111" stroke="#333333" stroke-width="1"/><rect id="cell-r7-c3" x="104" y="232" width="32" height="32" fill="#ffffff" stroke="#333333" stroke-width="1"/><text x="120" y="254" font-size="18" fill="#111111" text-anchor="middle">G</text><rect id="cell-r7-c4" x="136" y="232" width="32" height="32" fill="#111111" stroke="#333333" stroke-width="1"/><rect id="cell-r7-c5" x="168" y="232" width="32" height="32" fill="#111111" stroke="#333333" stroke-width="1"/><rect id="cell-r7-c6" x="200" y="232" width="32" height="32" fill="#111111" stroke="#333333" stroke-width="1"/><rect id="cell-r7-c7" x="232" y="232" width="32" height="32" fill="#111111" stroke="#333333" stroke-width="1"/><rect id="cell-r7-c8" x="264" y="232" width="32" height="32" fill="#111111" stroke="#333333" stroke-width="1"/><rect id="cell-r7-c9" x="296" y="232" width="32" height="32" fill="#111111" stroke="#333333" stroke-width="1"/><rect id="cell-r7-c10" x="328" y="232" width="32" height="32" fill="#111111" stroke="#333333" stroke-width="1"/><rect id="cell-r7-c11" x="360" y="232" width="32" height="32" fill="#111111" stroke="#333333" stroke-width="1"/><rect id="cell-r7-c12" x="392" y="232" width="32" height="32" fill="#ffffff" stroke="#333333" stroke-width="1"/><text x="394" y="242" font-size="9" fill="#0066cc">5</text><text x="408" y="254" font-size="18" fill="#111111" text-anchor="middle">B</text><rect id="cell-r7-c13" x="424" y="232" width="32" height="32" fill="#ffffff" stroke="#333333" stroke-width="1"/><text x="440" y="254" font-size="18" fill="#111111" text-anchor="middle">I</text><rect id="cell-r7-c14" x="456" y="232" width="32" height="32" fill="#ffffff" stroke="#333333" stroke-width="1"/><text x="472" y="254" font-size="18" fill="#111111" text-anchor="middle">A</text><rect id="cell-r7-c15" x="488" y="232" width="32" height="32" fill="#ffffff" stroke="#333333" stroke-width="1"/><text x="504" y="254" font-size="18" fill="#111111" text-anchor="middle">S</text><rect id="cell-r7-c16" x="520" y="232" width="32" height="32" fill="#111111" stroke="#333333" stroke-width="1"/><rect id="cell-r8-c0" x="8" y="264" width="32" height="32" fill="#111111" stroke="#333333" stroke-width="1"/><rect id="cell-r8-c1" x="40" y="264" width="32" height="32" fill="#111111" stroke="#333333" stroke-width="1"/><rect id="cell-r8-c2" x="72" y="264" width="32" height="32" fill="#111111" stroke="#333333" stroke-width="1"/><rect id="cell-r8-c3" x="104" y="264" width="32" height="32" fill="#ffffff" stroke="#333333" stroke-width="1"/><text x="120" y="286" font-size="18" fill="#111111" text-anchor="middle">O</text><rect id="cell-r8-c4" x="136" y="264" width="32" height="32" fill="#111111" stroke="#333333" stroke-width="1"/><rect id="cell-r8-c5" x="168" y="264" width="32" height="32" fill="#111111" stroke="#333333" stroke-width="1"/><rect id="cell-r8-c6" x="200" y="264" width="32" height="32" fill="#111111" stroke="#333333" stroke-width="1"/><rect id="cell-r8-c7" x="232" y="264" width="32" height="32" fill="#111111" stroke="#333333" stroke-width="1"/><rect id="cell-r8-c8" x="264" y="264" width="32" height="32" fill="#111111" stroke="#333333" stroke-width="1"/><rect id="cell-r8-c9" x="296" y="264" width="32" height="32" fill="#111111" stroke="#333333" stroke-width="1"/><rect id="cell-r8-c10" x="328" y="264" width="32" height="32" fill="#111111" stroke="#333333" stroke-width="1"/><rect id="cell-r8-c11" x="360" y="264" width="32" height="32" fill="#111111" stroke="#333333" stroke-width="1"/><rect id="cell-r8-c12" x="392" y="264" width="32" height="32" fill="#111111" stroke="#333333" stroke-width="1"/><rect id="cell-r8-c13" x="424" y="264" width="32" height="32" fill="#ffffff" stroke="#333333" stroke-width="1"/><text x="440" y="286" font-size="18" fill="#111111" text-anchor="middle">V</text><rect id="cell-r8-c14" x="456" y="264" width="32" height="32" fill="#111111" stroke="#333333" stroke-width="1"/><rect id="cell-r8-c15" x="488" y="264" width="32" height="32" fill="#111111" stroke="#333333" stroke-width="1"/><rect id="cell-r8-c16" x="520" y="264" width="32" height="32" fill="#111111" stroke="#333333" stroke-width="1"/><rect id="cell-r9-c0" x="8" y="296" width="32" height="32" fill="#111111" stroke="#333333" stroke-width="1"/><rect id="cell-r9-c1" x="40" y="296" width="32" height="32" fill="#111111" stroke="#333333" stroke-width="1"/><rect id="cell-r9-c2" x="72" y="296" width="32" height="32" fill="#111111" stroke="#333333" stroke-width="1"/><rect id="cell-r9-c3" x="104" y="296" width="32" height="32" fill="#ffffff" stroke="#333333" stroke-width="1"/><text x="120" y="318" font-size="18" fill="#111111" text-anchor="middle">S</text><rect id="cell-r9-c4" x="136" y="296" width="32" height="32" fill="#111111" stroke="#333333" stroke-width="1"/><rect id="cell-r9-c5" x="168" y="296" width="32" height="32" fill="#111111" stroke="#333333" stroke-width="1"/><rect id="cell-r9-c6" x="200" y="296" width="32" height="32" fill="#111111" stroke="#333333" stroke-width="1"/><rect id="cell-r9-c7" x="232" y="296" width="32" height="32" fill="#111111" stroke="#333333" stroke-width="1"/><rect id="cell-r9-c8" x="264" y="296" width="32" height="32" fill="#111111" stroke="#333333" stroke-width="1"/><rect id="cell-r9-c9" x="296" y="296" width="32" height="32" fill="#111111" stroke="#333333" stroke-width="1"/><rect id="cell-r9-c10" x="328" y="296" width="32" height="32" fill="#111111" stroke="#333333" stroke-width="1"/><rect id="cell-r9-c11" x="360" y="296" width="32" height="32" fill="#111111" stroke="#333333" stroke-width="1"/><rect id="cell-r9-c12" x="392" y="296" width="32" height="32" fill="#111111" stroke="#333333" stroke-width="1"/><rect id="cell-r9-c13" x="424" y="296" width="32" height="32" fill="#ffffff" stroke="#333333" stroke-width="1"/><text x="440" y="318" font-size="18" fill="#111111" text-anchor="middle">E</text><rect id="cell-r9-c14" x="456" y="296" width="32" height="32" fill="#111111" stroke="#333333" stroke-width="1"/><rect id="cell-r9-c15" x="488" y="296" width="32" height="32" fill="#111111" stroke="#333333" stroke-width="1"/><rect id="cell-r9-c16" x="520" y="296" width="32" height="32" fill="#111111" stroke="#333333" stroke-width="1"/><rect id="cell-r10-c0" x="8" y="328" width="32" height="32" fill="#111111" stroke="#333333" stroke-width="1"/><rect id="cell-r10-c1" x="40" y="328" width="32" height="32" fill="#111111" stroke="#333333" stroke-width="1"/><rect id="cell-r10-c2" x="72" y="328" width="32" height="32" fill="#111111" stroke="#333333" stroke-width="1"/><rect id="cell-r10-c3" x="104" y="328" width="32" height="32" fill="#ffffff" stroke="#333333" stroke-width="1"/><text x="120" y="350" font-size="18" fill="#111111" text-anchor="middle">P</text><rect id="cell-r10-c4" x="136" y="328" width="32" height="32" fill="#111111" stroke="#333333" stroke-width="1"/><rect id="cell-r10-c5" x="168" y="328" width="32" height="32" fill="#111111" stroke="#333333" stroke-width="1"/><rect id="cell-r10-c6" x="200" y="328" width="32" height="32" fill="#111111" stroke="#333333" stroke-width="1"/><rect id="cell-r10-c7" x="232" y="328" width="32" height="32" fill="#111111" stroke="#333333" stroke-width="1"/><rect id="cell-r10-c8" x="264" y="328" width="32" height="32" fill="#111111" stroke="#333333" stroke-width="1"/><rect id="cell-r10-c9" x="296" y="328" width="32" height="32" fill="#111111" stroke="#333333" stroke-width="1"/><rect id="cell-r10-c10" x="328" y="328" width="32" height="32" fill="#111111" stroke="#333333" stroke-width="1"/><rect id="cell-r10-c11" x="360" y="328" width="32" height="32" fill="#111111" stroke="#333333" stroke-width="1"/><rect id="cell-r10-c12" x="392" y="328" width="32" height="32" fill="#111111" stroke="#333333" stroke-width="1"/><rect id="cell-r10-c13" x="424" y="328" width="32" height="32" fill="#ffffff" stroke="#333333" stroke-width="1"/><text x="440" y="350" font-size="18" fill="#111111" text-anchor="middle">F</text><rect id="cell-r10-c14" x="456" y="328" width="32" height="32" fill="#111111" stroke="#333333" stroke-width="1"/><rect id="cell-r10-c15" x="488" y="328" width="32" height="32" fill="#111111" stroke="#333333" stroke-width="1"/><rect id="cell-r10-c16" x="520" y="328" width="32" height="32" fill="#111111" stroke="#333333" stroke-width="1"/><rect id="cell-r11-c0" x="8" y="360" width="32" height="32" fill="#111111" stroke="#333333" stroke-width="1"/><rect id="cell-r11-c1" x="40" y="360" width="32" height="32" fill="#111111" stroke="#333333" stroke-width="1"/><rect id="cell-r11-c2" x="72" y="360" width="32" height="32" fill="#111111" stroke="#333333" stroke-width="1"/><rect id="cell-r11-c3" x="104" y="360" width="32" height="32" fill="#ffffff" stroke="#333333" stroke-width="1"/><text x="120" y="382" font-size="18" fill="#111111" text-anchor="middle">E</text><rect id="cell-r11-c4" x="136" y="360" width="32" height="32" fill="#111111" stroke="#333333" stroke-width="1"/><rect id="cell-r11-c5" x="168" y="360" width="32" height="32" fill="#111111" stroke="#333333" stroke-width="1"/><rect id="cell-r11-c6" x="200" y="360" width="32" height="32" fill="#111111" stroke="#333333" stroke-width="1"/><rect id="cell-r11-c7" x="232" y="360" width="32" height="32" fill="#111111" stroke="#333333" stroke-width="1"/><rect id="cell-r11-c8" x="264" y="360" width="32" height="32" fill="#111111" stroke="#333333" stroke-width="1"/><rect id="cell-r11-c9" x="296" y="360" width="32" height="32" fill="#111111" stroke="#333333" stroke-width="1"/><rect id="cell-r11-c10" x="328" y="360" width="32" height="32" fill="#111111" stroke="#333333" stroke-width="1"/><rect id="cell-r11-c11" x="360" y="360" width="32" height="32" fill="#111111" stroke="#333333" stroke-width="1"/><rect id="cell-r11-c12" x="392" y="360" width="32" height="32" fill="#111111" stroke="#333333" stroke-width="1"/><rect id="cell-r11-c13" x="424" y="360" width="32" height="32" fill="#ffffff" stroke="#333333" stroke-width="1"/><text x="440" y="382" font-size="18" fill="#111111" text-anchor="middle">A</text><rect id="cell-r11-c14" x="456" y="360" width="32" height="32" fill="#111111" stroke="#333333" stroke-width="1"/><rect id="cell-r11-c15" x="488" y="360" width="32" height="32" fill="#111111" stroke="#333333" stroke-width="1"/><rect id="cell-r11-c16" x="520" y="360" width="32" height="32" fill="#111111" stroke="#333333" stroke-width="1"/><rect id="cell-r12-c0" x="8" y="392" width="32" height="32" fill="#111111" stroke="#333333" stroke-width="1"/><rect id="cell-r12-c1" x="40" y="392" width="32" height="32" fill="#111111" stroke="#333333" stroke-width="1"/><rect id="cell-r12-c2" x="72" y="392" width="32" height="32" fill="#ffffff" stroke="#333333" stroke-width="1"/><text x="74" y="402" font-size="9" fill="#0066cc">6</text><text x="88" y="414" font-size="18" fill="#111111" text-anchor="middle">F</text><rect id="cell-r12-c3" x="104" y="392" width="32" height="32" fill="#ffffff" stroke="#333333" stroke-width="1"/><text x="120" y="414" font-size="18" fill="#111111" text-anchor="middle">L</text><rect id="cell-r12-c4" x="136" y="392" width="32" height="32" fill="#ffffff" stroke="#333333" stroke-width="1"/><text x="152" y="414" font-size="18" fill="#111111" text-anchor="middle">O</text><rect id="cell-r12-c5" x="168" y="392" width="32" height="32" fill="#ffffff" stroke="#333333" stroke-width="1"/><text x="184" y="414" font-size="18" fill="#111111" text-anchor="middle">W</text><rect id="cell-r12-c6" x="200" y="392" width="32" height="32" fill="#111111" stroke="#333333" stroke-width="1"/><rect id="cell-r12-c7" x="232" y="392" width="32" height="32" fill="#111111" stroke="#333333" stroke-width="1"/><rect id="cell-r12-c8" x="264" y="392" width="32" height="32" fill="#111111" stroke="#333333" stroke-width="1"/><rect id="cell-r12-c9" x="296" y="392" width="32" height="32" fill="#111111" stroke="#333333" stroke-width="1"/><rect id="cell-r12-c10" x="328" y="392" width="32" height="32" fill="#111111" stroke="#333333" stroke-width="1"/><rect id="cell-r12-c11" x="360" y="392" width="32" height="32" fill="#111111" stroke="#333333" stroke-width="1"/><rect id="cell-r12-c12" x="392" y="392" width="32" height="32" fill="#111111" stroke="#333333" stroke-width="1"/><rect id="cell-r12-c13" x="424" y="392" width="32" height="32" fill="#ffffff" stroke="#333333" stroke-width="1"/><text x="440" y="414" font-size="18" fill="#111111" text-anchor="middle">L</text><rect id="cell-r12-c14" x="456" y="392" width="32" height="32" fill="#111111" stroke="#333333" stroke-width="1"/><rect id="cell-r12-c15" x="488" y="392" width="32" height="32" fill="#111111" stroke="#333333" stroke-width="1"/><rect id="cell-r12-c16" x="520" y="392" width="32" height="32" fill="#111111" stroke="#333333" stroke-width="1"/><rect id="cell-r13-c0" x="8" y="424" width="32" height="32" fill="#111111" stroke="#333333" stroke-width="1"/><rect id="cell-r13-c1" x="40" y="424" width="32" height="32" fill="#111111" stroke="#333333" stroke-width="1"/><rect id="cell-r13-c2" x="72" y="424" width="32" height="32" fill="#111111" stroke="#333333" stroke-width="1"/><rect id="cell-r13-c3" x="104" y="424" width="32" height="32" fill="#ffffff" stroke="#333333" stroke-width="1"/><text x="120" y="446" font-size="18" fill="#111111" text-anchor="middle">S</text><rect id="cell-r13-c4" x="136" y="424" width="32" height="32" fill="#111111" stroke="#333333" stroke-width="1"/><rect id="cell-r13-c5" x="168" y="424" width="32" height="32" fill="#111111" stroke="#333333" stroke-width="1"/><rect id="cell-r13-c6" x="200" y="424" width="32" height="32" fill="#111111" stroke="#333333" stroke-width="1"/><rect id="cell-r13-c7" x="232" y="424" width="32" height="32" fill="#111111" stroke="#333333" stroke-width="1"/><rect id="cell-r13-c8" x="264" y="424" width="32" height="32" fill="#111111" stroke="#333333" stroke-width="1"/><rect id="cell-r13-c9" x="296" y="424" width="32" height="32" fill="#111111" stroke="#333333" stroke-width="1"/><rect id="cell-r13-c10" x="328" y="424" width="32" height="32" fill="#111111" stroke="#333333" stroke-width="1"/><rect id="cell-r13-c11" x="360" y="424" width="32" height="32" fill="#111111" stroke="#333333" stroke-width="1"/><rect id="cell-r13-c12" x="392" y="424" width="32" height="32" fill="#111111" stroke="#333333" stroke-width="1"/><rect id="cell-r13-c13" x="424" y="424" width="32" height="32" fill="#ffffff" stroke="#333333" stroke-width="1"/><text x="440" y="446" font-size="18" fill="#111111" text-anchor="middle">L</text><rect id="cell-r13-c14" x="456" y="424" width="32" height="32" fill="#111111" stroke="#333333" stroke-width="1"/><rect id="cell-r13-c15" x="488" y="424" width="32" height="32" fill="#111111" stroke="#333333" stroke-width="1"/><rect id="cell-r13-c16" x="520" y="424" width="32" height="32" fill="#111111" stroke="#333333" stroke-width="1"/><rect id="cell-r14-c0" x="8" y="456" width="32" height="32" fill="#111111" stroke="#333333" stroke-width="1"/><rect id="cell-r14-c1" x="40" y="456" width="32" height="32" fill="#111111" stroke="#333333" stroke-width="1"/><rect id="cell-r14-c2" x="72" y="456" width="32" height="32" fill="#111111" stroke="#333333" stroke-width="1"/><rect id="cell-r14-c3" x="104" y="456" width="32" height="32" fill="#111111" stroke="#333333" stroke-width="1"/><rect id="cell-r14-c4" x="136" y="456" width="32" height="32" fill="#111111" stroke="#333333" stroke-width="1"/><rect id="cell-r14-c5" x="168" y="456" width="32" height="32" fill="#111111" stroke="#333333" stroke-width="1"/><rect id="cell-r14-c6" x="200" y="456" width="32" height="32" fill="#111111" stroke="#333333" stroke-width="1"/><rect id="cell-r14-c7" x="232" y="456" width="32" height="32" fill="#111111" stroke="#333333" stroke-width="1"/><rect id="cell-r14-c8" x="264" y="456" width="32" height="32" fill="#111111" stroke="#333333" stroke-width="1"/><rect id="cell-r14-c9" x="296" y="456" width="32" height="32" fill="#111111" stroke="#333333" stroke-width="1"/><rect id="cell-r14-c10" x="328" y="456" width="32" height="32" fill="#111111" stroke="#333333" stroke-width="1"/><rect id="cell-r14-c11" x="360" y="456" width="32" height="32" fill="#111111" stroke="#333333" stroke-width="1"/><rect id="cell-r14-c12" x="392" y="456" width="32" height="32" fill="#111111" stroke="#333333" stroke-width="1"/><rect id="cell-r14-c13" x="424" y="456" width="32" height="32" fill="#ffffff" stroke="#333333" stroke-width="1"/><text x="440" y="478" font-size="18" fill="#111111" text-anchor="middle">A</text><rect id="cell-r14-c14" x="456" y="456" width="32" height="32" fill="#111111" stroke="#333333" stroke-width="1"/><rect id="cell-r14-c15" x="488" y="456" width="32" height="32" fill="#111111" stroke="#333333" stroke-width="1"/><rect id="cell-r14-c16" x="520" y="456" width="32" height="32" fill="#111111" stroke="#333333" stroke-width="1"/><rect id="cell-r15-c0" x="8" y="488" width="32" height="32" fill="#111111" stroke="#333333" stroke-width="1"/><rect id="cell-r15-c1" x="40" y="488" width="32" height="32" fill="#111111" stroke="#333333" stroke-width="1"/><rect id="cell-r15-c2" x="72" y="488" width="32" height="32" fill="#111111" stroke="#333333" stroke-width="1"/><rect id="cell-r15-c3" x="104" y="488" width="32" height="32" fill="#111111" stroke="#333333" stroke-width="1"/><rect id="cell-r15-c4" x="136" y="488" width="32" height="32" fill="#111111" stroke="#333333" stroke-width="1"/><rect id="cell-r15-c5" x="168" y="488" width="32" height="32" fill="#111111" stroke="#333333" stroke-width="1"/><rect id="cell-r15-c6" x="200" y="488" width="32" height="32" fill="#111111" stroke="#333333" stroke-width="1"/><rect id="cell-r15-c7" x="232" y="488" width="32" height="32" fill="#111111" stroke="#333333" stroke-width="1"/><rect id="cell-r15-c8" x="264" y="488" width="32" height="32" fill="#111111" stroke="#333333" stroke-width="1"/><rect id="cell-r15-c9" x="296" y="488" width="32" height="32" fill="#111111" stroke="#333333" stroke-width="1"/><rect id="cell-r15-c10" x="328" y="488" width="32" height="32" fill="#111111" stroke="#333333" stroke-width="1"/><rect id="cell-r15-c11" x="360" y="488" width="32" height="32" fill="#111111" stroke="#333333" stroke-width="1"/><rect id="cell-r15-c12" x="392" y="488" width="32" height="32" fill="#111111" stroke="#333333" stroke-width="1"/><rect id="cell-r15-c13" x="424" y="488" width="32" height="32" fill="#ffffff" stroke="#333333" stroke-width="1"/><text x="440" y="510" font-size="18" fill="#111111" text-anchor="middle">C</text><rect id="cell-r15-c14" x="456" y="488" width="32" height="32" fill="#111111" stroke="#333333" stroke-width="1"/><rect id="cell-r15-c15" x="488" y="488" width="32" height="32" fill="#111111" stroke="#333333" stroke-width="1"/><rect id="cell-r15-c16" x="520" y="488" width="32" height="32" fill="#111111" stroke="#333333" stroke-width="1"/><rect id="cell-r16-c0" x="8" y="520" width="32" height="32" fill="#111111" stroke="#333333" stroke-width="1"/><rect id="cell-r16-c1" x="40" y="520" width="32" height="32" fill="#111111" stroke="#333333" stroke-width="1"/><rect id="cell-r16-c2" x="72" y="520" width="32" height="32" fill="#111111" stroke="#333333" stroke-width="1"/><rect id="cell-r16-c3" x="104" y="520" width="32" height="32" fill="#111111" stroke="#333333" stroke-width="1"/><rect id="cell-r16-c4" x="136" y="520" width="32" height="32" fill="#111111" stroke="#333333" stroke-width="1"/><rect id="cell-r16-c5" x="168" y="520" width="32" height="32" fill="#111111" stroke="#333333" stroke-width="1"/><rect id="cell-r16-c6" x="200" y="520" width="32" height="32" fill="#111111" stroke="#333333" stroke-width="1"/><rect id="cell-r16-c7" x="232" y="520" width="32" height="32" fill="#111111" stroke="#333333" stroke-width="1"/><rect id="cell-r16-c8" x="264" y="520" width="32" height="32" fill="#111111" stroke="#333333" stroke-width="1"/><rect id="cell-r16-c9" x="296" y="520" width="32" height="32" fill="#111111" stroke="#333333" stroke-width="1"/><rect id="cell-r16-c10" x="328" y="520" width="32" height="32" fill="#111111" stroke="#333333" stroke-width="1"/><rect id="cell-r16-c11" x="360" y="520" width="32" height="32" fill="#111111" stroke="#333333" stroke-width="1"/><rect id="cell-r16-c12" x="392" y="520" width="32" height="32" fill="#111111" stroke="#333333" stroke-width="1"/><rect id="cell-r16-c13" x="424" y="520" width="32" height="32" fill="#ffffff" stroke="#333333" stroke-width="1"/><text x="440" y="542" font-size="18" fill="#111111" text-anchor="middle">Y</text><rect id="cell-r16-c14" x="456" y="520" width="32" height="32" fill="#111111" stroke="#333333" stroke-width="1"/><rect id="cell-r16-c15" x="488" y="520" width="32" height="32" fill="#111111" stroke="#333333" stroke-width="1"/><rect id="cell-r16-c16" x="520" y="520" width="32" height="32" fill="#111111" stroke="#333333" stroke-width="1"/><text x="8" y="586" font-size="14" font-weight="bold" fill="#111111">Across</text><g class="clue" id="word-1-across"><text x="27" y="604" font-size="13" text-anchor="end" fill="#0066cc">1</text><text y="604" font-size="13" fill="#111111"><tspan x="34" dy="0">Transcending entropy (5,5)</tspan></text></g><g class="clue" id="word-4-across"><text x="27" y="622" font-size="13" text-anchor="end" fill="#0066cc">4</text><text y="622" font-size="13" fill="#111111"><tspan x="34" dy="0">Live (7,6)</tspan></text></g><g class="clue" id="word-5-across"><text x="27" y="640" font-size="13" text-anchor="end" fill="#0066cc">5</text><text y="640" font-size="13" fill="#111111"><tspan x="34" dy="0">Why your brain sucks (4)</tspan></text></g><g class="clue" id="word-6-across"><text x="27" y="658" font-size="13" text-anchor="end" fill="#0066cc">6</text><text y="658" font-size="13" fill="#111111"><tspan x="34" dy="0">Autotelic activity (4)</tspan></text></g><text x="292" y="586" font-size="14" font-weight="bold" fill="#111111">Down</text><g class="clue" id="word-2-down"><text x="311" y="604" font-size="13" text-anchor="end" fill="#0066cc">2</text><text y="604" font-size="13" fill="#111111"><tspan x="318" dy="0">Some apocrypha (7,7)</tspan></text></g><g class="clue" id="word-3-down"><text x="311" y="622" font-size="13" text-anchor="end" fill="#0066cc">3</text><text y="622" font-size="13" fill="#111111"><tspan x="318" dy="0">Telos everywhere (9,7)</tspan></text></g></svg>